<?xml version="1.0" encoding="utf-8"?>
<!-- Generator: Adobe Illustrator 17.0.0, SVG Export Plug-In . SVG Version: 6.00 Build 0)  -->
<!DOCTYPE svg PUBLIC "-//W3C//DTD SVG 1.1//EN" "http://www.w3.org/Graphics/SVG/1.1/DTD/svg11.dtd">
<svg version="1.1" id="Capa_1" xmlns="http://www.w3.org/2000/svg" xmlns:xlink="http://www.w3.org/1999/xlink" x="0px" y="0px"
	 width="100px" height="122.174px" viewBox="428.799 417.712 100 122.174" enable-background="new 428.799 417.712 100 122.174"
	 xml:space="preserve">
<g>
	<path fill="#319738" d="M522.063,431.543h-3.572v87.765c0,5.83-4.746,10.576-10.577,10.576h-36.196h-28.783v3.253
		c0,3.726,3.024,6.749,6.749,6.749h36.183h36.183c3.725,0,6.749-3.024,6.749-6.749v-94.846
		C528.8,434.566,525.789,431.543,522.063,431.543z"/>
	<path fill="#319738" d="M471.719,526.056h36.183c3.725,0,6.749-3.024,6.749-6.749v-87.765v-7.081c0-3.725-3.024-6.749-6.749-6.749
		h-36.183h-12.031v2.233c0.025,0.23,0.038,0.472,0.038,0.714v14.71v3.776c0,5.244-4.261,9.505-9.505,9.505h-3.776h-14.71
		c-0.191,0-0.396-0.013-0.587-0.026h-2.348v70.682c0,3.725,3.024,6.749,6.749,6.749h7.4H471.719L471.719,526.056z M473.084,503.117
		h-23.59c-1.761,0-3.19-1.429-3.19-3.19c0-1.761,1.429-3.19,3.19-3.19h23.603c1.761,0,3.19,1.429,3.19,3.19
		C476.286,501.688,474.844,503.117,473.084,503.117z M496.687,486.837h-47.193c-1.761,0-3.19-1.429-3.19-3.19
		c0-1.761,1.429-3.19,3.19-3.19h47.193c1.761,0,3.19,1.429,3.19,3.19C499.876,485.408,498.447,486.837,496.687,486.837z
		 M449.494,463.171h47.193c1.761,0,3.19,1.429,3.19,3.19s-1.429,3.19-3.19,3.19h-47.193c-1.761,0-3.19-1.429-3.19-3.19
		S447.733,463.171,449.494,463.171z"/>
	<path fill="#319738" d="M431.734,444.824h18.487c0.013,0,0.038,0,0.051,0c3.088-0.026,5.588-2.526,5.614-5.614
		c0-0.013,0-0.038,0-0.051v-18.5c0-1.71-1.403-2.845-2.858-2.845c-0.702,0-1.403,0.255-1.99,0.842l-21.319,21.319
		C427.932,441.762,429.195,444.824,431.734,444.824z"/>
</g>
</svg>
