<?xml version="1.0" encoding="utf-8"?>
<!-- Generator: Adobe Illustrator 17.0.0, SVG Export Plug-In . SVG Version: 6.00 Build 0)  -->
<!DOCTYPE svg PUBLIC "-//W3C//DTD SVG 1.1//EN" "http://www.w3.org/Graphics/SVG/1.1/DTD/svg11.dtd">
<svg version="1.1" id="Capa_1" xmlns="http://www.w3.org/2000/svg" xmlns:xlink="http://www.w3.org/1999/xlink" x="0px" y="0px"
	 width="100px" height="99.603px" viewBox="-34.24 -34.042 100 99.603" enable-background="new -34.24 -34.042 100 99.603"
	 xml:space="preserve">
<g>
	<g>
		<path fill="#319738" d="M-25.769,46.3c0,1.84,1.497,3.344,3.344,3.344h5.879c1.846,0,3.344-1.504,3.344-3.344v-20l-10.174,10.216
			l-2.392-2.44V46.3z"/>
		<path fill="#319738" d="M-4.681,46.431c0,1.777,1.437,3.214,3.211,3.214h6.145c1.773,0,3.211-1.437,3.211-3.214V22.068
			L-0.5,13.645l-4.181,4.229C-4.681,17.874-4.681,46.431-4.681,46.431z"/>
		<path fill="#319738" d="M25.76,49.638c1.773,0,3.211-1.437,3.211-3.211V13.699L16.182,26.345v20.082
			c0,1.78,1.437,3.217,3.211,3.217L25.76,49.638L25.76,49.638z"/>
		<path fill="#319738" d="M37.273,5.273v41.158c0,1.777,1.437,3.214,3.211,3.214h6.364c1.78,0,3.217-1.437,3.217-3.214V8.654
			l-8.074-8.027L37.273,5.273z"/>
		<path fill="#319738" d="M-3.723,10.111c1.754-1.751,4.591-1.751,6.345,0l7.567,7.567c1.069,1.072,2.519,1.666,4.032,1.666
			c1.51,0,2.963-0.596,4.032-1.666l23.76-23.76l3.864,3.864c0.593,0.59,1.478,0.768,2.243,0.457
			c0.771-0.314,1.282-1.056,1.294-1.888l0.197-13.458c0.019-0.977-0.359-1.916-1.047-2.611c-0.682-0.695-1.618-1.085-2.582-1.085
			h-13.68c-0.844,0-1.593,0.504-1.916,1.279c-0.324,0.774-0.143,1.666,0.46,2.256l3.296,3.303L17.413,2.766
			c-0.841,0.841-1.983,1.317-3.173,1.317s-2.329-0.473-3.173-1.313L2.645-5.657c-1.754-1.751-4.591-1.751-6.345,0l-24.239,24.226
			c-0.888,0.885-1.39,2.094-1.39,3.353c0,1.26,0.498,2.459,1.39,3.357l1.364,1.374c1.754,1.748,4.591,1.748,6.345,0L-3.723,10.111z"
			/>
		<path fill="#319738" d="M60.938-34.042c-2.614,0-4.822,2.122-4.822,4.743v85.441H-29.5c-2.621,0-4.74,2.094-4.74,4.711
			c0,2.621,2.119,4.708,4.74,4.708h90.47c2.614,0,4.791-2.126,4.791-4.74v-90.117C65.76-31.917,63.555-34.042,60.938-34.042z"/>
	</g>
</g>
</svg>
