<?xml version="1.0" encoding="utf-8"?>
<!-- Generator: Adobe Illustrator 17.0.0, SVG Export Plug-In . SVG Version: 6.00 Build 0)  -->
<!DOCTYPE svg PUBLIC "-//W3C//DTD SVG 1.1//EN" "http://www.w3.org/Graphics/SVG/1.1/DTD/svg11.dtd">
<svg version="1.1" id="Layer_1" xmlns="http://www.w3.org/2000/svg" xmlns:xlink="http://www.w3.org/1999/xlink" x="0px" y="0px"
	 width="217.621px" height="167.559px" viewBox="60.614 0 217.621 167.559" enable-background="new 60.614 0 217.621 167.559"
	 xml:space="preserve">
<path fill="#FFFFFF" d="M278.235,0H170.656H60.614v72.993c7.367,6.431,13.49,13.748,16.886,21.884
	c14.366,34.42,50.834,34.42,50.834,34.42s33.849,6.385,42.322,31.925c8.472-25.54,42.322-31.925,42.322-31.925
	s36.468,0,50.834-34.42c3.009-7.21,8.163-13.774,14.423-19.652V0z"/>
<g>
	<path fill="#319738" d="M205.782,57.211c0.023,0.544,0.051,1.216,0.096,1.709c0.636-0.08,1.461-0.224,2.32-0.375
		c1.666-0.292,3.55-0.623,4.92-0.688c0.17-0.008,0.343-0.005,0.515-0.005c-2.237-2.717-5.18-4.812-8.547-5.996
		C205.606,53.246,205.699,55.244,205.782,57.211"/>
	<path fill="#E6332A" d="M213.3,61.619c-1.126,0.054-2.875,0.36-4.419,0.631c-0.956,0.168-1.85,0.322-2.539,0.409
		c-0.094,0.012-0.189,0.019-0.285,0.024c-0.919,0.044-1.825-0.249-2.546-0.831c-0.796-0.641-1.296-1.577-1.387-2.595
		c-0.044-0.48-0.074-1.117-0.099-1.675l-0.009-0.201c-0.058-1.42-0.138-3.349-0.46-4.203c-0.004-0.009-0.005-0.018-0.008-0.026
		c-0.698-0.069-1.405-0.092-2.126-0.057c-1.016,0.048-2.004,0.202-2.952,0.446c-1.498,6.208-4.404,13.406-10.017,19.232
		c2.16,5.785,7.863,9.778,14.36,9.468c8.051-0.385,14.263-7.221,13.878-15.269c-0.091-1.914-0.569-3.712-1.318-5.354
		C213.33,61.62,213.3,61.619,213.3,61.619"/>
	<path fill="#E6332A" d="M153.867,75.005c0.114-0.032,0.161-0.06,0.163-0.06c4.039-2.472,10.609-8.88,10.937-8.97
		c0.327-0.091,9.256,2.024,13.992,2.065c0.002,0,0.056,0,0.17-0.032c3.379-0.936,14.18-13.844,13.913-35.628l-69.434,19.23
		C134.586,70.43,150.488,75.942,153.867,75.005"/>
	<path fill="#319738" d="M180.081,71.802c-4.735-0.033-13.938-1.581-13.938-1.581s-7.097,6.063-11.14,8.526
		c-4.044,2.463-23.305-4.52-35.55-25.986c0,0,11.081,40.825,50.163,30.001c39.081-10.824,27.582-51.534,27.582-51.534
		C197.739,55.938,184.816,71.835,180.081,71.802"/>
	<path fill="#BE1622" d="M138.905,54.817c-0.253-0.91-1.194-1.443-2.104-1.191s-1.443,1.194-1.192,2.104
		c0.253,0.91,1.194,1.443,2.105,1.191C138.624,56.669,139.157,55.728,138.905,54.817"/>
	<path fill="#BE1622" d="M148.82,48.523c-0.253-0.91-1.194-1.443-2.104-1.191c-0.91,0.252-1.444,1.194-1.192,2.104
		c0.253,0.91,1.194,1.443,2.104,1.191C148.538,50.375,149.071,49.434,148.82,48.523"/>
	<path fill="#BE1622" d="M157.842,54.895c-0.252-0.91-1.194-1.443-2.104-1.192c-0.91,0.252-1.443,1.194-1.192,2.104
		c0.252,0.91,1.194,1.443,2.104,1.192C157.56,56.747,158.094,55.805,157.842,54.895"/>
	<path fill="#BE1622" d="M167.758,48.601c-0.253-0.91-1.195-1.443-2.104-1.192c-0.91,0.252-1.443,1.194-1.192,2.104
		c0.253,0.91,1.195,1.444,2.104,1.192C167.475,50.453,168.009,49.51,167.758,48.601"/>
	<path fill="#BE1622" d="M176.78,54.972c-0.253-0.91-1.194-1.443-2.104-1.192c-0.91,0.253-1.444,1.194-1.192,2.104
		s1.194,1.444,2.104,1.192S177.032,55.882,176.78,54.972"/>
	<path fill="#BE1622" d="M186.694,48.678c-0.251-0.91-1.194-1.443-2.104-1.192c-0.909,0.252-1.443,1.194-1.19,2.104
		c0.251,0.91,1.193,1.443,2.103,1.192C186.413,50.53,186.947,49.588,186.694,48.678"/>
	<path fill="#BE1622" d="M178.998,41.939c-0.251-0.91-1.193-1.443-2.103-1.191c-0.91,0.252-1.444,1.194-1.192,2.104
		c0.251,0.91,1.193,1.443,2.104,1.192C178.717,43.791,179.251,42.849,178.998,41.939"/>
	<path fill="#BE1622" d="M188.914,35.645c-0.253-0.91-1.194-1.443-2.104-1.192c-0.91,0.252-1.443,1.194-1.192,2.104
		c0.253,0.91,1.194,1.443,2.105,1.192C188.632,37.497,189.167,36.555,188.914,35.645"/>
	<path fill="#BE1622" d="M163.673,62.462c-0.252-0.91-1.194-1.444-2.104-1.192c-0.91,0.253-1.444,1.194-1.192,2.104
		c0.252,0.91,1.193,1.444,2.104,1.192C163.392,64.314,163.926,63.372,163.673,62.462"/>
	<path fill="#BE1622" d="M148.704,62.748c-0.252-0.91-1.193-1.443-2.104-1.192c-0.91,0.252-1.444,1.194-1.192,2.104
		c0.253,0.91,1.194,1.443,2.104,1.192C148.422,64.6,148.956,63.658,148.704,62.748"/>
</g>
<g>
	<path fill="#706F6F" d="M116.792,38.628c-2.49-2.016-2.956-2.497-3.349-3.1c-0.958-1.475-0.776-3.013,0.479-4.564
		c1.572-1.942,3.518-2.104,5.358-0.822c0.109,0.089,0.134,0.186,0.087,0.278l-1.37,2.365c-0.06,0.107-0.171,0.147-0.264,0.071
		c-0.743-0.523-1.218-0.545-1.586-0.091c-0.241,0.297-0.246,0.656-0.074,0.925c0.153,0.227,0.313,0.382,2.786,2.385
		c2.444,1.978,2.659,2.127,2.899,2.216c0.314,0.125,0.676,0.029,0.942-0.3c0.279-0.345,0.297-0.719,0.11-1
		c-0.122-0.202-0.297-0.37-1.362-1.232c-0.063-0.051-0.12-0.045-0.171,0.018l-0.393,0.485c-0.076,0.094-0.189,0.106-0.283,0.03
		l-1.613-1.306c-0.094-0.076-0.106-0.189-0.03-0.283l2.269-2.804c0.076-0.094,0.189-0.106,0.284-0.03l0.454,0.367
		c2.49,2.016,2.941,2.484,3.334,3.088c0.957,1.475,0.791,3.025-0.413,4.513c-1.256,1.551-2.722,2.049-4.364,1.419
		C119.85,40.999,119.282,40.643,116.792,38.628z"/>
	<path fill="#706F6F" d="M118.667,26.198c-0.077-0.093-0.067-0.207,0.026-0.284l2.154-1.793c0.093-0.078,0.207-0.067,0.284,0.026
		l3.173,3.811c0.051,0.062,0.108,0.067,0.17,0.016l1.147-0.954c0.062-0.052,0.067-0.108,0.016-0.17l-3.173-3.811
		c-0.077-0.093-0.067-0.206,0.026-0.284l2.153-1.793c0.094-0.078,0.207-0.067,0.284,0.026l8.512,10.224
		c0.078,0.093,0.067,0.207-0.026,0.284l-2.153,1.793c-0.093,0.077-0.206,0.067-0.284-0.026l-3.366-4.043
		c-0.052-0.062-0.108-0.067-0.171-0.016l-1.147,0.954c-0.062,0.052-0.067,0.108-0.016,0.17l3.366,4.043
		c0.077,0.093,0.067,0.206-0.026,0.284l-2.154,1.793c-0.093,0.077-0.207,0.067-0.284-0.026L118.667,26.198z"/>
	<path fill="#706F6F" d="M127.396,19.347c-0.062-0.104-0.033-0.215,0.071-0.276l5.523-3.253c0.104-0.061,0.214-0.033,0.276,0.071
		l1.248,2.119c0.062,0.104,0.033,0.215-0.072,0.276l-2.83,1.668c-0.07,0.041-0.084,0.096-0.043,0.166l1.146,1.945
		c0.04,0.069,0.096,0.084,0.165,0.043l2.431-1.432c0.104-0.062,0.215-0.033,0.277,0.071l1.248,2.118
		c0.062,0.104,0.033,0.215-0.072,0.276l-2.431,1.432c-0.069,0.041-0.084,0.096-0.043,0.166l1.207,2.049
		c0.041,0.069,0.096,0.084,0.165,0.043l2.831-1.668c0.104-0.062,0.214-0.033,0.276,0.071l1.248,2.119
		c0.062,0.104,0.033,0.214-0.071,0.276l-5.523,3.253c-0.104,0.062-0.214,0.033-0.276-0.071L127.396,19.347z"/>
	<path fill="#706F6F" d="M140.196,24.899c-0.464-0.552-0.8-1.111-2.009-4.079s-1.358-3.604-1.411-4.322
		c-0.126-1.755,0.786-3.041,2.578-3.77c1.793-0.73,3.362-0.454,4.497,0.89c0.464,0.551,0.8,1.111,2.009,4.079
		s1.358,3.604,1.411,4.322c0.126,1.755-0.805,3.048-2.598,3.778C142.881,26.526,141.33,26.244,140.196,24.899z M144.114,22.39
		c-0.023-0.273-0.097-0.505-1.297-3.454c-1.201-2.95-1.31-3.166-1.484-3.378c-0.207-0.242-0.526-0.33-0.899-0.178
		c-0.355,0.144-0.521,0.43-0.501,0.748c0.024,0.273,0.097,0.505,1.298,3.454c1.2,2.95,1.31,3.166,1.484,3.379
		c0.207,0.242,0.526,0.33,0.881,0.185C143.968,22.994,144.135,22.708,144.114,22.39z"/>
	<path fill="#706F6F" d="M154.694,22.437c-0.137,0.034-0.23-0.005-0.298-0.113l-2.539-4.456l-0.451,0.112
		c-0.078,0.019-0.108,0.068-0.088,0.146l1.157,4.655c0.029,0.117-0.03,0.215-0.147,0.244l-2.719,0.675
		c-0.117,0.029-0.214-0.03-0.244-0.147l-3.207-12.909c-0.029-0.117,0.03-0.215,0.147-0.244l3.736-0.928
		c2.386-0.593,4.291,0.221,5.034,3.214c0.404,1.623,0.143,2.83-0.553,3.709l3.116,5.103c0.063,0.088,0.048,0.196-0.049,0.22
		L154.694,22.437z M151.966,13.459c-0.302-1.212-0.746-1.497-1.529-1.302l-0.45,0.112c-0.078,0.019-0.108,0.068-0.088,0.147
		l0.724,2.914c0.02,0.078,0.068,0.108,0.147,0.088l0.45-0.112C152.002,15.111,152.262,14.652,151.966,13.459z"/>
	<path fill="#706F6F" d="M157.641,14.795c-0.348-3.185-0.341-3.855-0.195-4.56c0.359-1.722,1.571-2.686,3.554-2.903
		c2.485-0.272,3.98,0.984,4.383,3.19c0.016,0.14-0.036,0.227-0.134,0.258l-2.638,0.715c-0.118,0.033-0.225-0.016-0.238-0.136
		c-0.159-0.895-0.481-1.245-1.062-1.181c-0.381,0.042-0.638,0.293-0.705,0.604c-0.051,0.269-0.047,0.492,0.299,3.657
		c0.342,3.125,0.39,3.383,0.497,3.615c0.136,0.309,0.46,0.497,0.881,0.451c0.44-0.048,0.717-0.302,0.782-0.633
		c0.056-0.229,0.05-0.472-0.099-1.834c-0.009-0.08-0.053-0.116-0.133-0.107l-0.621,0.068c-0.12,0.013-0.209-0.058-0.222-0.178
		l-0.226-2.063c-0.013-0.12,0.059-0.209,0.179-0.223l3.586-0.392c0.12-0.013,0.209,0.058,0.222,0.178l0.064,0.581
		c0.348,3.186,0.338,3.835,0.193,4.541c-0.359,1.722-1.569,2.706-3.472,2.914c-1.984,0.217-3.376-0.462-4.098-2.065
		C158.142,18.632,157.989,17.98,157.641,14.795z"/>
	<path fill="#706F6F" d="M168.085,7.163c0.002-0.121,0.084-0.2,0.206-0.198l2.801,0.058c0.121,0.002,0.2,0.085,0.197,0.206
		l-0.101,4.958c-0.002,0.08,0.037,0.122,0.118,0.123l1.491,0.031c0.081,0.002,0.122-0.038,0.124-0.118l0.101-4.958
		c0.002-0.121,0.085-0.2,0.206-0.197l2.802,0.057c0.121,0.003,0.2,0.085,0.197,0.206l-0.274,13.302
		c-0.002,0.121-0.084,0.2-0.206,0.198l-2.801-0.058c-0.121-0.002-0.2-0.085-0.197-0.206l0.108-5.26
		c0.002-0.081-0.037-0.122-0.119-0.124l-1.491-0.03c-0.081-0.002-0.122,0.038-0.124,0.118l-0.108,5.261
		c-0.002,0.121-0.085,0.2-0.206,0.198l-2.802-0.058c-0.121-0.002-0.2-0.085-0.197-0.206L168.085,7.163z"/>
	<path fill="#706F6F" d="M179.409,7.64c0.017-0.12,0.108-0.188,0.228-0.171l6.343,0.922c0.12,0.018,0.189,0.109,0.171,0.228
		l-0.353,2.434c-0.018,0.12-0.109,0.188-0.229,0.171l-3.251-0.473c-0.08-0.011-0.125,0.023-0.137,0.102l-0.325,2.234
		c-0.012,0.08,0.023,0.126,0.103,0.137l2.793,0.406c0.119,0.018,0.188,0.109,0.17,0.228l-0.353,2.434
		c-0.018,0.12-0.109,0.188-0.228,0.171l-2.793-0.406c-0.079-0.011-0.125,0.023-0.136,0.102l-0.342,2.354
		c-0.012,0.08,0.023,0.125,0.102,0.137l3.252,0.472c0.119,0.017,0.188,0.109,0.171,0.228l-0.354,2.434
		c-0.017,0.12-0.109,0.188-0.228,0.171l-6.344-0.922c-0.12-0.018-0.188-0.109-0.171-0.229L179.409,7.64z"/>
	<path fill="#706F6F" d="M194.753,10.71c0.041-0.114,0.145-0.162,0.259-0.12l3.579,1.303c1.893,0.689,2.82,1.798,2.754,3.511
		c-0.035,0.802-0.233,1.76-1.178,4.354c-0.944,2.594-1.408,3.455-1.896,4.092c-1.051,1.355-2.473,1.609-4.367,0.92l-3.579-1.303
		c-0.114-0.041-0.162-0.145-0.121-0.258L194.753,10.71z M194.238,21.847l0.359,0.131c0.511,0.186,0.877,0.126,1.187-0.254
		c0.238-0.3,0.467-0.753,1.314-3.082c0.848-2.329,0.963-2.823,0.974-3.205c0.007-0.491-0.234-0.772-0.745-0.958l-0.36-0.131
		c-0.076-0.027-0.128-0.003-0.155,0.072l-2.647,7.272C194.139,21.767,194.163,21.819,194.238,21.847z"/>
	<path fill="#706F6F" d="M199.853,24.589c0.135-0.707,0.355-1.322,1.893-4.133c1.537-2.812,1.935-3.329,2.458-3.824
		c1.28-1.207,2.853-1.311,4.551-0.383c1.698,0.928,2.476,2.319,2.151,4.048c-0.135,0.708-0.355,1.322-1.893,4.134
		c-1.537,2.811-1.935,3.329-2.458,3.824c-1.28,1.207-2.871,1.302-4.568,0.373C200.289,27.699,199.528,26.318,199.853,24.589z
		 M204.273,26.042c0.197-0.191,0.331-0.394,1.858-3.188c1.528-2.794,1.627-3.016,1.681-3.284c0.057-0.314-0.076-0.616-0.43-0.81
		c-0.336-0.184-0.663-0.132-0.896,0.085c-0.196,0.191-0.33,0.394-1.858,3.187c-1.528,2.794-1.627,3.016-1.681,3.284
		c-0.057,0.314,0.076,0.616,0.412,0.8C203.713,26.31,204.04,26.258,204.273,26.042z"/>
	<path fill="#706F6F" d="M206.713,29.628l2.386-0.325c0.141-0.019,0.237,0.055,0.271,0.209c0.049,0.266,0.167,0.51,0.375,0.669
		c0.447,0.344,0.867,0.261,1.297-0.298l5.984-7.776c0.074-0.096,0.187-0.111,0.282-0.037l2.22,1.708
		c0.096,0.074,0.111,0.187,0.037,0.283l-5.8,7.536c-1.745,2.267-3.754,2.399-5.718,0.888c-0.926-0.713-1.489-1.731-1.522-2.647
		C206.507,29.698,206.572,29.646,206.713,29.628z"/>
	<path fill="#706F6F" d="M223.391,27.719c0.117-0.051,0.217-0.061,0.312,0.044l2.099,2.314c0.095,0.104,0.09,0.218,0.013,0.314
		l-7.877,11.118c-0.077,0.125-0.176,0.106-0.258,0.016l-1.868-2.06c-0.095-0.105-0.09-0.219-0.013-0.315l1.354-1.717l-1.639-1.807
		l-1.855,1.165c-0.103,0.066-0.203,0.076-0.298-0.029l-1.882-2.075c-0.082-0.09-0.062-0.189,0.041-0.255L223.391,27.719z
		 M218.644,35.508l2.799-3.546l-0.027-0.03l-3.841,2.396L218.644,35.508z"/>
</g>
<g>
	<path fill="#706F6F" d="M110.03,68.371c3.624-1.415,4.172-1.564,4.764-1.6c1.356-0.075,2.383,0.563,2.949,2.009
		c0.652,1.671,0.147,3.037-1.74,3.969c-0.124,0.07-0.221,0.043-0.284-0.062l-0.624-0.989c-0.063-0.106-0.044-0.221,0.069-0.265
		c1.109-0.541,1.503-1.193,1.159-2.076c-0.264-0.676-0.707-0.979-1.381-0.933c-0.401,0.027-0.779,0.11-4.31,1.488
		s-3.865,1.574-4.178,1.826c-0.528,0.422-0.648,0.945-0.384,1.622c0.345,0.882,1.076,1.094,2.259,0.741
		c0.112-0.044,0.206,0.028,0.231,0.148l0.211,1.151c0.025,0.12-0.028,0.206-0.167,0.238c-2.019,0.593-3.316-0.069-3.969-1.74
		c-0.564-1.446-0.24-2.611,0.807-3.475C105.901,70.047,106.405,69.786,110.03,68.371z"/>
	<path fill="#706F6F" d="M109.146,78.775c0.394-0.501,0.78-0.829,4.026-2.97s3.7-2.368,4.315-2.533
		c1.327-0.368,2.498,0.09,3.352,1.385c0.854,1.295,0.825,2.569-0.046,3.627c-0.394,0.501-0.78,0.829-4.026,2.97
		s-3.7,2.368-4.315,2.533c-1.316,0.385-2.498-0.09-3.352-1.385C108.246,81.106,108.285,79.849,109.146,78.775z M111.984,82.236
		c0.403-0.121,0.677-0.254,3.873-2.362s3.426-2.308,3.695-2.631c0.411-0.512,0.408-1.138,0.009-1.743
		c-0.4-0.606-0.963-0.837-1.595-0.662c-0.414,0.104-0.688,0.237-3.884,2.345s-3.426,2.308-3.684,2.648
		c-0.41,0.512-0.419,1.121-0.02,1.727C110.778,82.164,111.352,82.412,111.984,82.236z"/>
	<path fill="#706F6F" d="M114.845,86.722c0.292-0.566,0.611-0.961,3.397-3.676c2.785-2.715,3.188-3.023,3.761-3.301
		c1.234-0.611,2.471-0.382,3.553,0.73c1.083,1.111,1.295,2.368,0.638,3.571c-0.292,0.566-0.611,0.961-3.396,3.676
		c-2.786,2.715-3.189,3.023-3.762,3.301c-1.219,0.626-2.47,0.381-3.553-0.73C114.401,89.182,114.203,87.94,114.845,86.722z
		 M118.286,89.588c0.373-0.195,0.617-0.376,3.359-3.049c2.742-2.673,2.931-2.912,3.135-3.28c0.306-0.58,0.186-1.195-0.32-1.714
		c-0.507-0.519-1.104-0.641-1.691-0.35c-0.387,0.18-0.632,0.362-3.374,3.035c-2.742,2.673-2.93,2.913-3.12,3.295
		c-0.307,0.58-0.2,1.18,0.306,1.7C117.087,89.744,117.698,89.88,118.286,89.588z"/>
	<path fill="#706F6F" d="M120.778,94.943c-0.097-0.072-0.114-0.185-0.042-0.282l7.934-10.682c0.072-0.097,0.185-0.114,0.281-0.042
		l1.927,1.43c1.942,1.442,2.329,3.086,0.525,5.514c-1.767,2.379-3.503,2.521-5.43,1.09l-0.68-0.504
		c-0.065-0.048-0.121-0.04-0.169,0.025l-3.077,4.143c-0.072,0.097-0.185,0.114-0.282,0.041L120.778,94.943z M130.092,89.908
		c1.154-1.554,1.082-2.436-0.116-3.326l-0.68-0.505c-0.065-0.048-0.122-0.04-0.169,0.025l-2.957,3.981
		c-0.048,0.065-0.04,0.122,0.025,0.169l0.68,0.505C128.073,91.647,128.926,91.477,130.092,89.908z"/>
	<path fill="#706F6F" d="M134.825,88.371c0.059-0.106,0.168-0.137,0.274-0.078l4.526,2.516c0.105,0.059,0.136,0.168,0.078,0.274
		l-0.539,0.968c-0.058,0.106-0.168,0.137-0.274,0.079l-3.169-1.763c-0.071-0.039-0.125-0.023-0.164,0.048l-2.076,3.733
		c-0.039,0.07-0.023,0.125,0.048,0.164l2.747,1.528c0.106,0.059,0.137,0.168,0.079,0.274l-0.539,0.968
		c-0.059,0.106-0.168,0.137-0.274,0.079l-2.747-1.528c-0.07-0.039-0.125-0.023-0.164,0.047l-2.144,3.857
		c-0.039,0.071-0.023,0.126,0.047,0.164l3.17,1.762c0.106,0.059,0.137,0.168,0.079,0.274l-0.539,0.969
		c-0.059,0.105-0.168,0.136-0.274,0.078l-4.525-2.517c-0.106-0.058-0.137-0.168-0.079-0.274L134.825,88.371z"/>
	<path fill="#706F6F" d="M140.424,106.019c-0.111-0.045-0.153-0.106-0.152-0.214l0.571-5.948c-0.175-0.05-0.362-0.126-0.53-0.194
		l-0.765-0.312c-0.075-0.03-0.128-0.009-0.158,0.066l-2.082,5.115c-0.046,0.112-0.15,0.157-0.263,0.111l-1.139-0.464
		c-0.112-0.045-0.157-0.15-0.111-0.263l5.016-12.322c0.045-0.111,0.15-0.156,0.263-0.111l2.221,0.905
		c2.241,0.912,3.041,2.369,1.946,5.057c-0.692,1.699-1.67,2.498-2.864,2.599l-0.514,6.341c0,0.108-0.076,0.187-0.169,0.149
		L140.424,106.019z M143.729,96.831c0.699-1.718,0.359-2.487-0.984-3.034l-0.803-0.327c-0.075-0.03-0.127-0.009-0.157,0.066
		l-1.748,4.294c-0.03,0.075-0.008,0.127,0.066,0.157l0.803,0.327C142.212,98.847,143.023,98.567,143.729,96.831z"/>
	<path fill="#706F6F" d="M150.182,95.02c0.071-0.105,0.15-0.167,0.267-0.135l1.165,0.32c0.117,0.032,0.173,0.131,0.161,0.253
		l-0.751,13.585c-0.012,0.122-0.111,0.179-0.228,0.147l-1.165-0.321c-0.136-0.037-0.173-0.131-0.16-0.253l0.214-3.055l-2.933-0.807
		l-1.38,2.733c-0.051,0.111-0.131,0.173-0.248,0.141l-1.165-0.321c-0.117-0.032-0.173-0.131-0.122-0.242L150.182,95.02z
		 M149.786,104.127l0.456-6.06l-0.058-0.016l-2.787,5.419L149.786,104.127z"/>
	<path fill="#706F6F" d="M154.223,109.829c-0.119-0.022-0.185-0.115-0.163-0.235l2.094-11.684c0.014-0.079-0.018-0.126-0.097-0.141
		l-2.222-0.398c-0.119-0.021-0.184-0.115-0.163-0.234l0.196-1.091c0.021-0.119,0.115-0.184,0.234-0.162l6.289,1.127
		c0.119,0.021,0.184,0.115,0.163,0.234l-0.196,1.091c-0.021,0.119-0.115,0.184-0.234,0.163l-2.222-0.398
		c-0.079-0.014-0.126,0.018-0.14,0.097l-2.094,11.685c-0.022,0.119-0.115,0.184-0.235,0.163L154.223,109.829z"/>
	<path fill="#706F6F" d="M161.714,97.311c0.013-0.121,0.101-0.193,0.221-0.18l1.223,0.127c0.12,0.013,0.193,0.101,0.18,0.221
		l-1.375,13.231c-0.012,0.12-0.101,0.192-0.221,0.179l-1.223-0.127c-0.12-0.013-0.192-0.101-0.179-0.221L161.714,97.311z"/>
	<path fill="#706F6F" d="M167.143,111.243c-0.121-0.003-0.179-0.086-0.196-0.207l-2.334-13.373
		c-0.016-0.122,0.026-0.201,0.167-0.196l1.249,0.036c0.121,0.004,0.179,0.066,0.196,0.207l1.581,10.126l0.061,0.002l2.105-10.019
		c0.024-0.14,0.106-0.199,0.227-0.195l1.209,0.034c0.141,0.005,0.179,0.087,0.155,0.207l-3.105,13.216
		c-0.023,0.12-0.087,0.199-0.207,0.196L167.143,111.243z"/>
	<path fill="#706F6F" d="M174.128,97.696c0.033-0.123,0.088-0.207,0.209-0.215l1.207-0.074c0.121-0.008,0.207,0.068,0.234,0.187
		l3.697,13.101c0.028,0.119-0.048,0.204-0.168,0.212l-1.207,0.075c-0.141,0.009-0.206-0.069-0.234-0.188l-0.789-2.96l-3.037,0.187
		l-0.419,3.035c-0.012,0.122-0.068,0.207-0.189,0.214l-1.207,0.075c-0.121,0.008-0.207-0.068-0.193-0.19L174.128,97.696z
		 M176.708,106.443l-1.535-5.883l-0.061,0.004l-0.879,6.032L176.708,106.443z"/>
	<path fill="#706F6F" d="M185.291,96.278c0.014-0.126,0.055-0.218,0.174-0.244l1.181-0.26c0.118-0.026,0.213,0.036,0.259,0.15
		l5.668,12.37c0.045,0.114-0.016,0.21-0.134,0.236l-1.181,0.26c-0.138,0.03-0.214-0.036-0.26-0.15l-1.235-2.803l-2.972,0.653
		l0.054,3.062c0.006,0.122-0.036,0.214-0.154,0.24l-1.181,0.26c-0.119,0.026-0.214-0.035-0.221-0.157V96.278H185.291z
		 M189.185,104.52l-2.422-5.574l-0.059,0.013l0.059,6.093L189.185,104.52z"/>
	<path fill="#706F6F" d="M192.408,101.424c-1.249-3.684-1.352-4.18-1.356-4.817c-0.02-1.376,0.721-2.394,2.191-2.891
		c1.793-0.608,3.148,0.061,3.972,1.802c0.058,0.108,0.052,0.217-0.056,0.274l-0.998,0.572c-0.127,0.065-0.222,0.034-0.281-0.075
		c-0.496-1.023-1.193-1.447-2.127-1.13c-0.687,0.233-1.073,0.726-1.064,1.382c-0.004,0.427,0.055,0.726,1.284,4.351
		c1.228,3.626,1.363,3.899,1.627,4.236c0.391,0.527,1.016,0.677,1.703,0.444c0.687-0.232,1.093-0.732,1.083-1.388
		c-0.008-0.401-0.055-0.726-0.953-3.379c-0.026-0.076-0.077-0.101-0.154-0.076L196,101.163c-0.115,0.039-0.217-0.012-0.256-0.126
		l-0.343-1.011c-0.038-0.115,0.012-0.217,0.126-0.256l2.691-0.912c0.114-0.039,0.217,0.012,0.255,0.126l0.188,0.553
		c1.177,3.473,1.281,3.97,1.285,4.607c0.039,1.369-0.721,2.393-2.19,2.891c-1.469,0.498-2.676,0.14-3.497-0.964
		C193.874,105.564,193.655,105.106,192.408,101.424z"/>
	<path fill="#706F6F" d="M208.286,102.399c-0.109,0.052-0.181,0.043-0.261-0.03l-4.033-4.408c-0.154,0.097-0.336,0.185-0.5,0.263
		l-0.744,0.36c-0.072,0.035-0.091,0.089-0.056,0.161l2.402,4.972c0.053,0.109,0.016,0.217-0.094,0.269l-1.107,0.535
		c-0.109,0.052-0.217,0.015-0.27-0.094l-5.787-11.976c-0.052-0.109-0.015-0.217,0.094-0.27l2.159-1.043
		c2.178-1.052,3.795-0.67,5.058,1.943c0.798,1.651,0.736,2.912,0.011,3.867l4.363,4.629c0.08,0.073,0.087,0.182-0.003,0.225
		L208.286,102.399z M203.679,93.791c-0.807-1.67-1.606-1.933-2.912-1.302l-0.78,0.377c-0.072,0.035-0.091,0.089-0.056,0.161
		l2.016,4.174c0.035,0.072,0.089,0.091,0.162,0.056l0.78-0.377C204.159,96.268,204.494,95.479,203.679,93.791z"/>
	<path fill="#706F6F" d="M204.934,88.793c-0.063-0.103-0.037-0.214,0.067-0.277l1.048-0.643c0.103-0.063,0.214-0.037,0.277,0.067
		l6.952,11.341c0.064,0.103,0.037,0.214-0.066,0.277l-1.048,0.643c-0.103,0.063-0.214,0.037-0.277-0.066L204.934,88.793z"/>
	<path fill="#706F6F" d="M211.806,92.371c-2.355-3.095-2.648-3.581-2.846-4.14c-0.444-1.283-0.114-2.446,1.122-3.385
		c1.427-1.086,2.879-0.975,4.292,0.583c0.101,0.1,0.102,0.201,0.018,0.29l-0.779,0.872c-0.084,0.089-0.201,0.102-0.274,0.006
		c-0.825-0.917-1.56-1.118-2.313-0.544c-0.578,0.439-0.748,0.949-0.518,1.584c0.136,0.378,0.32,0.719,2.614,3.734
		c2.294,3.016,2.574,3.284,2.902,3.515c0.551,0.391,1.087,0.363,1.664-0.076c0.754-0.574,0.757-1.336,0.093-2.375
		c-0.073-0.097-0.03-0.206,0.079-0.263l1.048-0.519c0.108-0.057,0.206-0.03,0.275,0.095c1.125,1.778,0.844,3.207-0.583,4.292
		c-1.235,0.94-2.444,0.949-3.562,0.178C214.551,95.879,214.161,95.466,211.806,92.371z"/>
	<path fill="#706F6F" d="M221.86,90.713c-0.576-0.273-0.981-0.578-3.787-3.269c-2.807-2.691-3.129-3.083-3.426-3.647
		c-0.652-1.212-0.465-2.455,0.61-3.575c1.073-1.12,2.322-1.374,3.546-0.758c0.575,0.273,0.981,0.578,3.787,3.269
		s3.128,3.083,3.425,3.647c0.666,1.197,0.465,2.455-0.609,3.575C224.333,91.074,223.098,91.314,221.86,90.713z M224.608,87.179
		c-0.207-0.366-0.397-0.604-3.161-3.254c-2.763-2.649-3.009-2.829-3.383-3.021c-0.59-0.287-1.2-0.146-1.701,0.378
		c-0.502,0.523-0.604,1.124-0.292,1.702c0.193,0.381,0.383,0.619,3.147,3.268c2.762,2.649,3.009,2.829,3.397,3.007
		c0.59,0.287,1.186,0.16,1.688-0.363C224.803,88.371,224.919,87.756,224.608,87.179z"/>
	<path fill="#706F6F" d="M218.585,77.037c-0.1-0.067-0.122-0.179-0.055-0.28l0.684-1.022c0.067-0.101,0.179-0.123,0.28-0.056
		l9.87,6.599c0.067,0.045,0.123,0.034,0.168-0.033l1.994-2.983c0.068-0.1,0.179-0.123,0.28-0.056l0.922,0.617
		c0.1,0.067,0.122,0.179,0.055,0.279l-2.857,4.273c-0.067,0.101-0.178,0.123-0.28,0.055L218.585,77.037z"/>
	<path fill="#706F6F" d="M222.787,69.867c-0.097-0.083-0.148-0.17-0.102-0.282l0.46-1.119c0.046-0.112,0.151-0.155,0.27-0.128
		l13.401,2.389c0.119,0.027,0.164,0.132,0.118,0.244l-0.46,1.119c-0.054,0.131-0.151,0.156-0.27,0.129l-3.008-0.582l-1.157,2.816
		l2.548,1.701c0.104,0.064,0.156,0.151,0.11,0.263l-0.46,1.118c-0.046,0.112-0.151,0.156-0.255,0.091L222.787,69.867z
		 M231.784,71.362l-5.963-1.186l-0.023,0.056l5.044,3.424L231.784,71.362z"/>
</g>
<path fill="#319738" d="M272.639,78.005c-4.528,4.937-8.25,10.308-10.668,16.103c-13.666,32.742-48.644,33.193-48.994,33.194
	l-0.37,0.035c-1.341,0.253-31.063,6.109-41.952,28.593c-10.888-22.483-40.611-28.34-41.952-28.593l-0.37-0.035
	c-0.352,0-35.297-0.38-48.993-33.194c-2.419-5.795-6.14-11.166-10.668-16.103H63.08c5.452,5.351,9.908,11.243,12.578,17.64
	c7.69,18.424,21.599,27.139,31.914,31.206c10.357,4.083,19.07,4.413,20.553,4.439c2.496,0.518,32.919,7.293,40.637,30.56
	l1.894,5.709l1.894-5.709c7.705-23.228,38.142-30.04,40.638-30.56c1.486-0.026,10.197-0.357,20.551-4.439
	c10.315-4.067,24.225-12.782,31.914-31.206c2.67-6.396,7.128-12.289,12.582-17.64C278.235,78.005,272.639,78.005,272.639,78.005z"/>
</svg>
