<?xml version="1.0" encoding="utf-8"?>
<!-- Generator: Adobe Illustrator 17.0.0, SVG Export Plug-In . SVG Version: 6.00 Build 0)  -->
<!DOCTYPE svg PUBLIC "-//W3C//DTD SVG 1.1//EN" "http://www.w3.org/Graphics/SVG/1.1/DTD/svg11.dtd">
<svg version="1.1" id="Capa_1" xmlns="http://www.w3.org/2000/svg" xmlns:xlink="http://www.w3.org/1999/xlink" x="0px" y="0px"
	 width="45px" height="43.304px" viewBox="23.917 24.765 45 43.304" enable-background="new 23.917 24.765 45 43.304"
	 xml:space="preserve">
<g>
	<g>
		<path fill="#6F6F6F" d="M60.447,31.982H32.386c-0.535,0-0.969,0.435-0.969,0.969v4.309c0,0.535,0.435,0.969,0.969,0.969h28.061
			c0.534,0,0.969-0.435,0.969-0.969v-4.309C61.417,32.417,60.982,31.982,60.447,31.982z"/>
		<path fill="#6F6F6F" d="M60.447,43.293H32.386c-0.535,0-0.969,0.435-0.969,0.969v4.309c0,0.535,0.435,0.969,0.969,0.969h28.061
			c0.534,0,0.969-0.435,0.969-0.969v-4.309C61.417,43.728,60.982,43.293,60.447,43.293z"/>
		<path fill="#6F6F6F" d="M60.447,54.604H32.386c-0.535,0-0.969,0.435-0.969,0.969v4.309c0,0.535,0.435,0.969,0.969,0.969h28.061
			c0.534,0,0.969-0.435,0.969-0.969v-4.309C61.417,55.038,60.982,54.604,60.447,54.604z"/>
	</g>
</g>
</svg>
