<?xml version="1.0" encoding="utf-8"?>
<!-- Generator: Adobe Illustrator 17.0.0, SVG Export Plug-In . SVG Version: 6.00 Build 0)  -->
<!DOCTYPE svg PUBLIC "-//W3C//DTD SVG 1.1//EN" "http://www.w3.org/Graphics/SVG/1.1/DTD/svg11.dtd">
<svg version="1.1" id="Capa_1" xmlns="http://www.w3.org/2000/svg" xmlns:xlink="http://www.w3.org/1999/xlink" x="0px" y="0px"
	 width="100px" height="100px" viewBox="205 205 100 100" enable-background="new 205 205 100 100" xml:space="preserve">
<g>
	<g id="keyboard-alt">
		<path fill="#319738" d="M272.5,250c4,0,7.5-3.5,7.5-7.5s-3.5-7.5-7.5-7.5s-7.5,3.5-7.5,7.5S268.5,250,272.5,250z M237.5,250
			c4,0,7.5-3.5,7.5-7.5s-3.5-7.5-7.5-7.5s-7.5,3.5-7.5,7.5S233.5,250,237.5,250z M255,285c13,0,24-8.5,28.5-20h-57
			C231,276.5,242,285,255,285z M255,205c-27.5,0-50,22.5-50,50s22.5,50,50,50s50-22.5,50-50S282.5,205,255,205z M255,295
			c-22,0-40-18-40-40s18-40,40-40s40,18,40,40S277,295,255,295z"/>
	</g>
</g>
</svg>
